<svg width="40" height="41" viewBox="0 0 40 41" fill="none" xmlns="http://www.w3.org/2000/svg">
<rect y="0.657471" width="40" height="40" rx="4" fill="#6D788D" fill-opacity="0.12"/>
<path d="M26.06 31.6475H27.72C28.56 31.6475 29.25 31.0075 29.35 30.1875L31 13.7075H26V9.65747H24.03V13.7075H19.06L19.36 16.0475C21.07 16.5175 22.67 17.3675 23.63 18.3075C25.07 19.7275 26.06 21.1975 26.06 23.5975V31.6475ZM9 30.6475V29.6575H24.03V30.6475C24.03 31.1975 23.58 31.6475 23.02 31.6475H10.01C9.45 31.6475 9 31.1975 9 30.6475ZM24.03 23.6475C24.03 15.6475 9 15.6475 9 23.6475H24.03ZM9.02 25.6575H24.02V27.6575H9.02V25.6575Z" fill="#8592A3"/>
</svg>
