<svg width="40" height="41" viewBox="0 0 40 41" fill="none" xmlns="http://www.w3.org/2000/svg">
<rect y="0.657471" width="40" height="40" rx="4" fill="#00B2FF" fill-opacity="0.12"/>
<path d="M17 14.6575H16V13.3075L17 13.1875V14.6575ZM17 20.6575H16V15.6575H17V20.6575ZM14 15.6575H15V20.6575H14V15.6575ZM14 13.5375L15 13.4175V14.6575H14V13.5375ZM30 11.6575V10.6575L13 12.6575V20.6575H10C10 24.3475 12.47 27.5175 16 28.9075V30.6575H24V28.9075C27.53 27.5175 30 24.3475 30 20.6575H18V15.6575H30V14.6575H18V13.0675L30 11.6575Z" fill="#00B2FF"/>
</svg>
