<svg width="41" height="40" viewBox="0 0 41 40" fill="none" xmlns="http://www.w3.org/2000/svg">
<rect x="0.666992" width="40" height="40" rx="6" fill="#5D5FEF" fill-opacity="0.13"/>
<path d="M29.667 12H11.667C11.4018 12 11.1474 12.1054 10.9599 12.2929C10.7723 12.4804 10.667 12.7348 10.667 13V27C10.667 27.2652 10.7723 27.5196 10.9599 27.7071C11.1474 27.8946 11.4018 28 11.667 28H29.667C29.9322 28 30.1866 27.8946 30.3741 27.7071C30.5616 27.5196 30.667 27.2652 30.667 27V13C30.667 12.7348 30.5616 12.4804 30.3741 12.2929C30.1866 12.1054 29.9322 12 29.667 12ZM28.667 23C27.8713 23 27.1083 23.3161 26.5457 23.8787C25.9831 24.4413 25.667 25.2044 25.667 26H15.667C15.667 25.2044 15.3509 24.4413 14.7883 23.8787C14.2257 23.3161 13.4626 23 12.667 23V17C13.4626 17 14.2257 16.6839 14.7883 16.1213C15.3509 15.5587 15.667 14.7956 15.667 14H25.667C25.667 14.7956 25.9831 15.5587 26.5457 16.1213C27.1083 16.6839 27.8713 17 28.667 17V23Z" fill="#7879F1"/>
<path d="M20.667 16C18.461 16 16.667 17.794 16.667 20C16.667 22.206 18.461 24 20.667 24C22.873 24 24.667 22.206 24.667 20C24.667 17.794 22.873 16 20.667 16ZM20.667 22C19.564 22 18.667 21.103 18.667 20C18.667 18.897 19.564 18 20.667 18C21.77 18 22.667 18.897 22.667 20C22.667 21.103 21.77 22 20.667 22Z" fill="#A5A6F6"/>
</svg>
