<svg width="40" height="41" viewBox="0 0 40 41" fill="none" xmlns="http://www.w3.org/2000/svg">
<rect y="0.657471" width="40" height="40" rx="4" fill="#26C6F9" fill-opacity="0.12"/>
<path d="M13 30.6575H27C27.5304 30.6575 28.0391 30.4468 28.4142 30.0717C28.7893 29.6967 29 29.188 29 28.6575V19.6575C29.0008 19.5259 28.9755 19.3955 28.9258 19.2736C28.876 19.1518 28.8027 19.041 28.71 18.9475L20.71 10.9475C20.5226 10.7613 20.2692 10.6567 20.005 10.6567C19.7408 10.6567 19.4874 10.7613 19.3 10.9475L11.3 18.9475C11.2055 19.0401 11.1303 19.1506 11.0788 19.2725C11.0273 19.3943 11.0005 19.5252 11 19.6575V28.6575C11 29.188 11.2107 29.6967 11.5858 30.0717C11.9609 30.4468 12.4696 30.6575 13 30.6575ZM18 28.6575V23.6575H22V28.6575H18ZM13 20.0675L20 13.0675L27 20.0675V28.6575H24V23.6575C24 23.1271 23.7893 22.6184 23.4142 22.2433C23.0391 21.8682 22.5304 21.6575 22 21.6575H18C17.4696 21.6575 16.9609 21.8682 16.5858 22.2433C16.2107 22.6184 16 23.1271 16 23.6575V28.6575H13V20.0675Z" fill="#03C3EC"/>
</svg>
