<svg width="40" height="41" viewBox="0 0 40 41" fill="none" xmlns="http://www.w3.org/2000/svg">
<rect y="0.657471" width="40" height="40" rx="4" fill="#72E128" fill-opacity="0.12"/>
<path d="M17 22.9075C17.6904 22.9075 18.25 22.3478 18.25 21.6575C18.25 20.9671 17.6904 20.4075 17 20.4075C16.3096 20.4075 15.75 20.9671 15.75 21.6575C15.75 22.3478 16.3096 22.9075 17 22.9075Z" fill="#71DD37"/>
<path d="M28.77 17.2375L27.85 19.2475C27.94 19.7075 28 20.1775 28 20.6575C28 25.0675 24.41 28.6575 20 28.6575C15.59 28.6575 12 25.0675 12 20.6575C12 20.6075 12.01 20.5575 12 20.5175C14.6 19.5375 16.69 17.5275 17.74 14.9675C19.58 17.2175 22.37 18.6575 25.5 18.6575C25.95 18.6575 26.39 18.6175 26.83 18.5575L26.23 17.2375L25.35 15.3075L20.63 13.1575L23.42 11.8875L24.13 11.5675C22.87 10.9875 21.47 10.6575 20 10.6575C14.48 10.6575 10 15.1375 10 20.6575C10 26.1775 14.48 30.6575 20 30.6575C25.52 30.6575 30 26.1775 30 20.6575C30 19.1875 29.67 17.7875 29.1 16.5275L28.77 17.2375Z" fill="#71DD37"/>
<path d="M23 22.9075C23.6904 22.9075 24.25 22.3478 24.25 21.6575C24.25 20.9671 23.6904 20.4075 23 20.4075C22.3096 20.4075 21.75 20.9671 21.75 21.6575C21.75 22.3478 22.3096 22.9075 23 22.9075Z" fill="#71DD37"/>
<path d="M28.6 14.2575L27.5 16.6575L26.4 14.2575L24 13.1575L26.4 12.0575L27.5 9.65747L28.6 12.0575L31 13.1575L28.6 14.2575Z" fill="#71DD37"/>
</svg>
