<svg width="41" height="40" viewBox="0 0 41 40" fill="none" xmlns="http://www.w3.org/2000/svg">
<rect x="0.666992" width="40" height="40" rx="6" fill="#00B2FF" fill-opacity="0.12"/>
<g clip-path="url(#clip0_5780_30698)">
<path d="M32.3333 16H9V18.3333H32.3333V16Z" fill="#C1C0FF"/>
<path d="M28.8333 11.3335H12.5C10.5693 11.3391 9.00562 12.9028 9 14.8335V16.0002H32.3333V14.8335C32.3277 12.9028 30.764 11.3391 28.8333 11.3335ZM9 25.3335C9.00569 27.2642 10.5693 28.8278 12.5 28.8335H28.8333C30.764 28.8278 32.3276 27.2642 32.3333 25.3335V18.3335H9V25.3335Z" fill="#A2A1FF"/>
<path d="M18.3337 22.9998H14.8337C14.1893 22.9998 13.667 22.4775 13.667 21.8332C13.667 21.1888 14.1893 20.6665 14.8337 20.6665H18.3337C18.978 20.6665 19.5003 21.1888 19.5003 21.8332C19.5003 22.4775 18.978 22.9998 18.3337 22.9998Z" fill="#6563FF"/>
</g>
<defs>
<clipPath id="clip0_5780_30698">
<rect width="24" height="17" fill="white" transform="translate(8.66699 11.5)"/>
</clipPath>
</defs>
</svg>
