<svg width="41" height="40" viewBox="0 0 41 40" fill="none" xmlns="http://www.w3.org/2000/svg">
<rect x="0.666992" width="40" height="40" rx="6" fill="#26C6F9" fill-opacity="0.12"/>
<path d="M19.467 31.9999C13.5023 31.9999 8.66699 27.1646 8.66699 21.1999C8.66699 15.2352 13.5023 10.3999 19.467 10.3999C19.7853 10.3999 20.0906 10.5261 20.3157 10.7512C20.5408 10.9763 20.6672 11.2816 20.667 11.5999V19.9999H29.067C29.3853 19.9997 29.6906 20.1261 29.9157 20.3512C30.1408 20.5763 30.267 20.8816 30.267 21.1999C30.2605 27.1619 25.429 31.9934 19.467 31.9999Z" fill="#03C3EC"/>
<path d="M19.467 31.9999C13.5023 31.9999 8.66699 27.1646 8.66699 21.1999C8.66699 15.2352 13.5023 10.3999 19.467 10.3999C19.7853 10.3999 20.0906 10.5261 20.3157 10.7512C20.5408 10.9763 20.6672 11.2816 20.667 11.5999V19.9999H29.067C29.3853 19.9997 29.6906 20.1261 29.9157 20.3512C30.1408 20.5763 30.267 20.8816 30.267 21.1999C30.2605 27.1619 25.429 31.9934 19.467 31.9999Z" fill="white" fill-opacity="0.4"/>
<path fill-rule="evenodd" clip-rule="evenodd" d="M31.4674 17.6H24.2674C23.9491 17.6002 23.6437 17.4738 23.4187 17.2487C23.1936 17.0236 23.0672 16.7183 23.0674 16.4V9.2C23.0672 8.88169 23.1936 8.57635 23.4187 8.35127C23.6437 8.12619 23.9491 7.99982 24.2674 8C28.9061 8.00119 32.6662 11.7613 32.6674 16.4C32.6676 16.7183 32.5412 17.0236 32.3161 17.2487C32.091 17.4738 31.7857 17.6002 31.4674 17.6Z" fill="#03C3EC"/>
</svg>
