<svg width="49" height="48" viewBox="0 0 49 48" fill="none" xmlns="http://www.w3.org/2000/svg">
<rect x="0.333008" width="48" height="48" rx="4" fill="#00B2FF" fill-opacity="0.12"/>
<path d="M11.333 15.3333C11.333 16.9287 12.6264 18.2221 14.2219 18.2222H14.2219H34.4441C36.0396 18.2222 37.333 19.5155 37.333 21.111V32.6666C37.333 34.2621 36.0396 35.5555 34.4441 35.5555H14.2219C12.6264 35.5555 11.333 34.2621 11.333 32.6666V15.3333Z" fill="#00B2FF"/>
<path d="M11.333 15.3333C11.333 16.9287 12.6264 18.2221 14.2219 18.2222H14.2219H34.4441C36.0396 18.2222 37.333 19.5155 37.333 21.111V32.6666C37.333 34.2621 36.0396 35.5555 34.4441 35.5555H14.2219C12.6264 35.5555 11.333 34.2621 11.333 32.6666V15.3333Z" fill="white" fill-opacity="0.6"/>
<path d="M14.2219 18.2221H31.5552V15.0443C31.5552 13.6084 30.3912 12.4443 28.9552 12.4443H13.933C12.4971 12.4443 11.333 13.6084 11.333 15.0443V15.3332C11.333 16.9287 12.6264 18.2221 14.2219 18.2221Z" fill="#00B2FF"/>
<path d="M14.2219 18.2221H31.5552V15.0443C31.5552 13.6084 30.3912 12.4443 28.9552 12.4443H13.933C12.4971 12.4443 11.333 13.6084 11.333 15.0443V15.3332C11.333 16.9287 12.6264 18.2221 14.2219 18.2221Z" fill="white" fill-opacity="0.4"/>
<path fill-rule="evenodd" clip-rule="evenodd" d="M37.3332 30.5H33.5872C31.6883 30.5344 30.0264 29.23 29.6088 27.3772C29.183 25.2623 30.5524 23.2026 32.6673 22.7768C32.9195 22.726 33.176 22.7003 33.4332 22.7H37.3332V30.5Z" fill="#00B2FF"/>
</svg>
