<svg width="41" height="40" viewBox="0 0 41 40" fill="none" xmlns="http://www.w3.org/2000/svg">
<rect x="0.666992" width="40" height="40" rx="6" fill="#72E128" fill-opacity="0.12"/>
<path d="M8.66699 12C8.66699 13.4728 9.86088 14.6667 11.3336 14.6667H11.3337H30.0003C31.4731 14.6667 32.667 15.8606 32.667 17.3333V28C32.667 29.4728 31.4731 30.6667 30.0003 30.6667H11.3337C9.8609 30.6667 8.66699 29.4728 8.66699 28V12Z" fill="#71DD37"/>
<path d="M8.66699 12C8.66699 13.4728 9.86088 14.6667 11.3336 14.6667H11.3337H30.0003C31.4731 14.6667 32.667 15.8606 32.667 17.3333V28C32.667 29.4728 31.4731 30.6667 30.0003 30.6667H11.3337C9.8609 30.6667 8.66699 29.4728 8.66699 28V12Z" fill="white" fill-opacity="0.6"/>
<path d="M11.3337 14.6666H27.3336V11.7333C27.3336 10.4078 26.2592 9.33325 24.9336 9.33325H11.067C9.74153 9.33325 8.66699 10.4078 8.66699 11.7333V11.9999C8.66699 13.4727 9.86091 14.6666 11.3337 14.6666Z" fill="#71DD37"/>
<path d="M11.3337 14.6666H27.3336V11.7333C27.3336 10.4078 26.2592 9.33325 24.9336 9.33325H11.067C9.74153 9.33325 8.66699 10.4078 8.66699 11.7333V11.9999C8.66699 13.4727 9.86091 14.6666 11.3337 14.6666Z" fill="white" fill-opacity="0.4"/>
<path fill-rule="evenodd" clip-rule="evenodd" d="M32.6667 26H29.2088C27.4559 26.0318 25.9219 24.8278 25.5365 23.1175C25.1434 21.1653 26.4074 19.264 28.3597 18.871C28.5924 18.8241 28.8292 18.8004 29.0667 18.8H32.6667V26Z" fill="#71DD37"/>
</svg>
