<svg width="41" height="40" viewBox="0 0 41 40" fill="none" xmlns="http://www.w3.org/2000/svg">
<rect x="0.666992" width="40" height="40" rx="6" fill="#FF4D49" fill-opacity="0.12"/>
<path d="M17.3657 28.3524C17.2846 28.8633 16.8441 29.2394 16.3268 29.2394H12.296C11.4052 29.2413 10.6816 28.5208 10.6797 27.6301C10.6795 27.5401 10.6868 27.4503 10.7016 27.3615L13.426 10.103C13.5809 9.13998 14.4107 8.43107 15.3861 8.42847H21.9227C24.6163 8.42847 26.5599 9.0808 27.7002 10.367C28.8013 11.6355 29.2242 13.3565 28.8364 14.9908C28.8138 15.1326 28.7912 15.2754 28.7573 15.4305C27.8913 19.8674 24.9122 22.223 20.1466 22.223H18.3385L17.3657 28.3524Z" fill="#FF3E1D"/>
<path d="M17.3657 28.3524C17.2846 28.8633 16.8441 29.2394 16.3268 29.2394H12.296C11.4052 29.2413 10.6816 28.5208 10.6797 27.6301C10.6795 27.5401 10.6868 27.4503 10.7016 27.3615L13.426 10.103C13.5809 9.13998 14.4107 8.43107 15.3861 8.42847H21.9227C24.6163 8.42847 26.5599 9.0808 27.7002 10.367C28.8013 11.6355 29.2242 13.3565 28.8364 14.9908C28.8138 15.1326 28.7912 15.2754 28.7573 15.4305C27.8913 19.8674 24.9122 22.223 20.1466 22.223H18.3385L17.3657 28.3524Z" fill="white" fill-opacity="0.4"/>
<path fill-rule="evenodd" clip-rule="evenodd" d="M29.5206 14.8501C29.3459 14.6544 29.1538 14.4758 28.9473 14.3157C28.9243 14.5414 28.8896 14.7669 28.8365 14.9908C28.8139 15.1326 28.7912 15.2754 28.7573 15.4305C27.8913 19.8674 24.9122 22.2229 20.1466 22.2229H18.3385L17.3658 28.3524C17.2847 28.8633 16.8441 29.2394 16.3268 29.2394H15.0985L15.0122 29.7869C14.9996 29.8665 14.9932 29.947 14.9932 30.0277C14.9928 30.8799 15.6834 31.571 16.5356 31.5714H19.938C20.8487 31.579 21.6297 30.9234 21.78 30.0252L22.4539 25.7846L22.4652 25.7271H22.7796C27.0213 25.7271 29.6707 23.6303 30.4432 19.665C30.9212 18.0048 30.5785 16.2161 29.5206 14.8501Z" fill="#FF3E1D"/>
</svg>
