<svg width="67" height="30" viewBox="0 0 67 30" fill="none" xmlns="http://www.w3.org/2000/svg">
<path d="M56.7067 14.5898C55.5767 14.5898 54.7548 14.2815 54.1386 13.6652C53.5221 13.1515 53.3167 12.3297 53.2139 11.405C53.2139 10.4804 53.5221 9.45318 54.2411 8.83681C54.8577 8.22043 55.7823 7.7068 56.7067 7.39866C57.6313 7.09043 58.5558 6.88485 59.3777 6.78219C59.8914 6.78219 59.9942 5.03581 58.6587 5.03581C57.3233 5.03581 57.015 6.16582 56.9123 6.47396C56.7067 6.88485 56.5014 7.29583 55.9877 7.39866C55.474 7.60405 54.9604 7.50131 54.5495 7.09043C54.0358 6.5768 54.0358 5.85768 54.5495 4.93298C54.8577 4.41935 55.3711 4.00846 55.9877 3.70032C56.604 3.49483 57.3233 3.39209 58.145 3.39209C59.3777 3.39209 60.4051 3.70032 61.2268 4.21395C62.0487 4.72758 62.5624 5.54953 62.5624 6.78219V11.5079C62.5624 11.9188 62.5624 12.2269 62.6652 12.4323C62.7678 12.6379 62.9734 12.7405 63.3843 12.7405C63.6924 12.5352 64.0006 12.6379 64.1034 12.8433C64.206 13.3569 64.0006 13.7678 63.5897 14.076C63.1787 14.3842 62.6652 14.4869 62.1515 14.4869C61.7406 14.4869 61.3297 14.3842 60.9187 14.1788C60.5077 13.9734 60.1996 13.7678 59.9942 13.3569C59.8914 13.2542 59.8914 13.2542 59.7887 13.2542C59.6859 13.2542 59.6859 13.2542 59.5833 13.2542C59.4805 13.2542 59.4805 13.3569 59.4805 13.3569C58.6587 14.2815 57.734 14.5898 56.7067 14.5898ZM57.9396 9.2477C57.8368 9.55592 57.8368 9.86407 58.0423 10.1723C58.2477 10.4804 58.4533 10.5832 58.864 10.686C59.0696 10.686 59.2751 10.5832 59.4805 10.4804C59.6859 10.3777 59.6859 10.1723 59.7887 9.86407V8.32317C59.7887 8.22043 59.7887 8.22043 59.6859 8.22043H59.5833H59.4805C59.2751 8.32317 59.0696 8.32317 58.864 8.42583C58.2477 8.63132 58.0423 8.93946 57.9396 9.2477Z" fill="#278732"/>
<path d="M51.7767 11.3028C50.9548 10.5836 51.0576 8.32354 51.0576 8.32354V4.4198C51.0576 3.49528 51.1603 2.05695 51.3658 1.02978C51.5713 -0.100316 50.7494 0.00243239 50.544 0.00243239C50.544 0.00243239 50.544 0.00243239 50.4413 0.00243239C50.3385 0.00243239 50.2358 0.00243239 50.1332 0.105175C49.722 0.207828 49.003 0.413319 47.9757 0.721547C46.4347 1.13243 46.5376 1.85164 46.5376 2.05695C46.6403 2.67342 47.5647 2.67342 47.9757 3.28979C48.1813 3.49528 48.2838 3.90616 48.2838 4.21431V9.3508C48.1813 10.07 48.0785 10.8919 47.6676 11.2C46.6403 12.0219 46.6403 12.8437 46.6403 13.1519C46.6403 13.4601 46.8457 14.3846 47.6676 14.3846H49.3113H49.9276H51.5713C52.4958 14.3846 52.5986 13.4601 52.5986 13.1519C52.8041 12.9465 52.7013 12.1246 51.7767 11.3028Z" fill="#278732"/>
<path d="M44.8938 11.3026C44.4828 10.8917 44.2775 10.0699 44.2775 9.35076V8.01536C44.1747 6.78252 43.8665 5.75516 43.2501 4.93339C42.5309 4.11153 41.7091 3.70064 40.4764 3.5979C39.2436 3.5979 38.2164 4.31701 37.3944 5.65251C37.3944 5.65251 37.3944 5.65251 37.3944 5.75516H37.2918H37.1891C37.1891 5.75516 37.1891 5.75516 37.0862 5.65251C36.6753 4.93339 36.2644 4.41976 35.6481 4.11153C35.0317 3.8033 34.518 3.5979 33.9017 3.5979C32.6689 3.5979 31.7443 4.21418 31.0252 5.44702C31.0252 5.44702 31.0252 5.44702 31.0252 5.54977C31.0252 5.65251 30.9225 5.65251 30.9225 5.65251L30.8197 5.75516H30.7171L30.6142 5.65251V4.41976C30.6142 4.00888 30.4088 3.8033 30.1006 3.90613C30.1006 3.90613 29.1761 4.11153 27.5323 4.62516C25.9914 5.03613 26.0942 5.75516 26.0942 5.96066C26.1969 6.57703 27.1214 6.57703 27.5323 7.19349C27.9433 7.80978 27.9433 8.93987 27.9433 8.93987V9.04261C27.9433 9.76173 27.8406 10.8917 27.2242 11.3026C26.1969 12.1245 26.1969 12.9464 26.1969 13.2546C26.1969 13.5627 26.4023 14.4873 27.2242 14.4873H28.8678H29.4842H31.1279C32.0525 14.4873 32.1552 13.5627 32.1552 13.2546C32.1552 12.8435 32.1552 12.1245 31.1279 11.3026C30.7171 10.8917 30.6142 9.86448 30.6142 9.14536C30.7171 8.63173 30.8197 8.22075 31.1279 7.80987C31.4361 7.3988 32.2579 7.19349 32.7717 7.19349C33.5934 7.19349 34.2097 7.60438 34.518 8.3235C34.6207 8.73439 34.7234 9.14536 34.7234 9.55625C34.6207 10.1726 34.518 10.9945 34.1071 11.3026C33.0797 12.1245 33.0797 12.9464 33.0797 13.2546C33.0797 13.5627 33.2852 14.4873 34.1071 14.4873H35.7507H36.3672H38.0109C38.8328 14.4873 39.0381 13.5627 39.0381 13.2546C39.0381 12.8435 39.0381 12.1245 38.0109 11.3026C37.4973 10.8917 37.3944 9.86448 37.3944 9.14536C37.3944 9.04261 37.3944 9.04261 37.3944 8.93987C37.4973 8.22075 37.5999 8.01536 38.0109 7.60438C38.319 7.29615 39.0381 7.09066 39.5518 7.09066C40.2709 7.09066 41.0928 7.50172 41.2983 8.11801C41.4009 8.5289 41.5037 8.93987 41.5037 9.45351C41.4009 10.0699 41.2983 10.789 40.8873 11.1999C39.86 12.0217 39.86 12.8435 39.86 13.1517C39.86 13.4601 40.0654 14.3845 40.8873 14.3845H42.5309H43.1473H44.7909C45.7156 14.3845 45.8184 13.4601 45.8184 13.1517C45.9211 12.9464 45.8184 12.1245 44.8938 11.3026Z" fill="#278732"/>
<path d="M25.4779 12.7411C25.3751 12.1248 24.4505 12.1248 24.0396 11.5085C23.8342 11.2003 23.7314 10.7893 23.7314 10.4811V4.3173C23.7314 3.90641 23.526 3.70093 23.2179 3.80358C23.2179 3.80358 22.1905 3.80358 20.6495 4.3173C19.1087 4.72828 19.2113 5.44731 19.2113 5.6528C19.3141 6.26917 20.2387 6.26917 20.6495 6.88555C20.7523 6.98829 20.855 7.19378 20.855 7.39917C20.855 8.32378 20.7523 10.0703 18.4922 9.96742C17.6703 9.96742 17.1567 9.65928 16.8486 8.73467C16.6431 8.01555 16.9513 5.85828 16.8486 4.21456C16.8486 3.80358 16.5403 3.70093 16.2322 3.70093C16.2322 3.70093 15.2048 3.70093 13.6639 4.21456C13.253 4.3173 13.0475 4.41996 12.8421 4.62553C12.2257 5.03642 12.3284 5.44731 12.3284 5.6528C12.4312 6.26917 13.3557 6.26917 13.7667 6.88555C14.0748 7.29643 14.0748 7.91281 14.1776 8.22113V10.0703C14.2803 11.5085 14.5885 12.6384 15.3076 13.3576C16.0267 14.0766 16.8486 14.4876 17.7732 14.4876C19.1087 14.4876 20.136 13.7685 20.855 12.5358L20.9578 12.4329C20.9578 12.4329 20.9578 12.3303 21.0605 12.3303H21.1632C21.1632 12.3303 21.1632 12.3303 21.266 12.4329V14.0766C21.266 14.4876 21.4713 14.693 21.7796 14.5904C21.7796 14.5904 22.7042 14.5904 24.3479 14.0766C25.5806 13.6658 25.5806 12.9466 25.4779 12.7411Z" fill="#278732"/>
<path d="M13.0475 1.7487C13.0475 1.44055 12.9448 0.310547 11.0957 0.310547H10.3765H9.76011H8.42462C6.57554 0.310547 6.47275 1.44055 6.47275 1.7487C6.47275 2.15967 6.47275 2.77613 7.5001 3.59791C8.01369 4.11154 8.11643 5.03615 8.11643 5.65252L7.70554 10.9945C7.70554 11.9191 7.29461 12.6382 6.47275 12.6382C6.1646 12.6382 4.52084 12.1245 5.95912 11.3027C6.26739 11.0972 6.57554 10.8918 6.78094 10.5835C6.98638 10.2754 7.08917 9.96724 6.98638 9.55626C6.88368 9.14538 6.67824 8.83723 6.37 8.63174C6.06186 8.42626 5.75368 8.3236 5.34274 8.3236C4.93181 8.3236 4.62358 8.3236 4.31544 8.3236C4.00725 8.3236 3.69902 8.42626 3.39087 8.63174C2.15808 9.35068 2.15808 10.5835 2.26087 10.7891C2.26087 11.4054 2.56901 12.1245 3.08269 12.741C3.80181 13.6654 4.82911 14.1791 6.26739 14.1791C6.98638 14.1791 12.123 14.7956 12.123 10.7891C12.123 8.73449 11.3011 7.3989 11.5065 4.41978C11.6093 4.00889 11.8148 3.59791 12.0202 3.39242C13.0475 2.77613 13.0475 2.15967 13.0475 1.7487C13.0475 1.85153 13.0475 1.85153 13.0475 1.7487Z" fill="#278732"/>
<path d="M44.5855 19.9328C45.5102 18.9056 46.6402 18.3918 48.0783 18.3918C49.5166 18.3918 50.7493 18.9056 51.5712 19.8301C52.4959 20.7547 52.9067 22.0901 52.9067 23.8366C52.9067 25.4803 52.4959 26.9184 51.5712 27.8431C50.6466 28.8704 49.5166 29.3841 48.0783 29.3841C46.6402 29.3841 45.4073 28.8704 44.5855 27.9458C43.661 27.0213 43.25 25.6857 43.25 23.9394C43.1473 22.3984 43.661 21.0628 44.5855 19.9328ZM48.4893 21.9874C48.3865 21.6793 48.2837 21.2684 48.1812 21.0628C47.9757 20.7547 47.7702 20.6519 47.5647 20.6519C47.2565 20.6519 47.051 20.7547 46.8457 21.0628C46.6402 21.3712 46.5375 21.6793 46.5375 21.9874C46.4347 22.3984 46.4347 22.7066 46.4347 22.912C46.4347 23.2201 46.4347 23.5284 46.5375 23.8366C46.6402 24.1447 46.7429 24.5557 46.8457 24.7613C47.051 25.0694 47.2565 25.172 47.462 25.172C47.7702 25.172 47.9757 25.0694 48.0783 24.7613C48.2837 24.4529 48.3865 24.1447 48.3865 23.8366C48.4893 23.4256 48.4893 23.1175 48.4893 22.912C48.592 22.6037 48.4893 22.2956 48.4893 21.9874Z" fill="#278732"/>
<path d="M61.4332 18.6997C60.2005 18.6997 58.8649 19.3161 58.1459 20.5488C58.1459 20.5488 58.1459 20.5488 58.1459 20.6517C58.1459 20.7542 58.0432 20.7542 58.0432 20.7542L57.9405 20.857H57.8377L57.7351 20.7542V19.5217C57.7351 19.1107 57.5295 18.9053 57.2214 19.0079C57.2214 19.0079 56.2968 19.2134 54.653 19.727C53.1122 20.1379 53.2148 20.857 53.2148 21.0626C53.3176 21.6788 54.2422 21.6788 54.653 22.2952C55.0641 22.9117 55.0641 24.0417 55.0641 24.0417V24.1444C55.0641 24.8636 54.9612 25.9936 54.3448 26.4044C53.3176 27.2262 53.3176 28.0483 53.3176 28.3562C53.3176 28.6645 53.5229 29.5891 54.3448 29.5891H55.9886H56.6049H58.3514C59.1732 29.5891 59.3786 28.6645 59.3786 28.3562C59.3786 27.9455 59.3786 27.2262 58.3514 26.4044C57.8377 25.9936 57.7349 24.9661 57.6323 24.2471C57.7349 23.7335 57.8377 23.3226 58.1459 22.9117C58.4542 22.5007 59.2759 22.2952 59.7896 22.2952C60.6115 22.2952 61.2278 22.7061 61.5361 23.4254C61.6387 23.8361 61.7415 24.2471 61.7415 24.6581C61.6387 25.2744 61.5361 26.0962 61.1252 26.4044C60.0978 27.2262 60.0978 28.0481 60.0978 28.3562C60.0978 28.6645 60.3032 29.5891 61.1252 29.5891H62.7687H63.4878H65.1316C66.0562 29.5891 66.1589 28.6645 66.1589 28.3562C66.1589 27.9455 66.1589 27.2262 65.1316 26.4044C64.618 25.9936 64.5152 24.9661 64.5152 24.2471C64.5152 22.1926 65.7479 18.6997 61.4332 18.6997Z" fill="#278732"/>
<path d="M18.0815 25.068C17.9787 24.5543 17.5679 24.5543 17.3624 24.8625C16.8487 25.3761 16.5405 25.2736 16.0269 25.068C15.616 24.8625 15.3078 24.4515 15.3078 23.7325V23.4243C15.3078 23.0133 15.4105 21.8833 15.616 21.5751C16.1295 20.9589 17.465 20.8561 17.465 20.2397C17.465 19.8287 17.3624 19.5204 16.0269 19.2124C15.3078 19.0068 15.2051 18.4933 15.2051 18.2879V16.5414C15.2051 16.336 14.8969 15.925 14.4859 16.336C14.1778 16.6441 13.7669 17.0549 13.3559 17.466C12.4313 18.2879 11.7123 18.8014 11.0958 19.5204C10.5822 19.9314 10.6849 20.2397 10.6849 20.4451C10.7876 21.0614 11.7123 21.0614 12.1231 21.678C12.4313 22.1914 12.4313 23.1161 12.3285 23.7325C12.2259 24.7599 11.9177 25.2734 11.9177 26.609C11.9177 29.5881 14.3832 29.8963 15.2051 29.7937C15.7186 29.7937 16.2324 29.6909 16.746 29.3827C17.3624 28.9718 18.8006 27.8417 18.0815 25.068Z" fill="#278732"/>
<path d="M35.7509 25.068C35.6482 24.5543 35.2372 24.5543 35.0319 24.8625C34.5182 25.3761 34.21 25.2736 33.6962 25.068C33.2855 24.8625 32.9772 24.4515 32.9772 23.7325V23.4243C32.9772 23.0133 33.0799 21.8833 33.2855 21.5751C33.7991 20.9589 35.1345 20.8561 35.1345 20.2397C35.1345 19.8287 35.0319 19.5204 33.6965 19.2124C32.9772 19.0068 32.8744 18.4933 32.8744 18.2879V16.5414C32.8744 16.336 32.5662 15.925 32.1553 16.336C31.8472 16.6441 31.4363 17.0549 31.0254 17.466C30.1008 18.2879 29.3816 18.8014 28.7653 19.5204C28.2516 19.9314 28.3543 20.2397 28.3543 20.4451C28.4571 21.0614 29.3816 21.0614 29.7926 21.678C30.1008 22.1914 30.1008 23.1161 29.998 23.7325C29.8953 24.7599 29.5871 25.2734 29.5871 26.609C29.5871 29.5881 32.0527 29.8963 32.8744 29.7937C33.3882 29.7937 33.9018 29.6909 34.4155 29.3827C35.0319 28.9718 36.47 27.8417 35.7509 25.068Z" fill="#278732"/>
<path d="M22.0861 29.1776C20.9561 29.1776 20.1342 28.8693 19.5179 28.253C18.9015 27.7393 18.6961 26.9175 18.5933 25.9929C18.5933 25.0682 18.9015 24.0411 19.6205 23.4246C20.237 22.8082 21.1615 22.2946 22.0861 21.9864C23.0106 21.6782 23.9352 21.4727 24.757 21.3701C25.2708 21.3701 25.3735 19.6236 24.038 19.6236C22.7025 19.6236 22.3943 20.7536 22.2915 21.0619C22.0861 21.4727 21.778 21.8836 21.367 21.9864C20.8533 22.1919 20.3397 22.0891 19.9288 21.6782C19.4151 21.1646 19.4151 20.4454 19.9288 19.521C20.237 19.0072 20.7506 18.5964 21.367 18.2882C21.9834 18.0826 22.7025 17.98 23.5243 17.98C24.757 17.98 25.7845 18.2882 26.6062 18.8018C27.4281 19.3154 27.9417 20.1373 27.9417 21.3701V26.0955C27.9417 26.5067 27.9417 26.8148 28.0445 27.0202C28.1471 27.2256 28.3527 27.3283 28.7635 27.3283C29.0717 27.123 29.38 27.2258 29.4827 27.4311C29.5854 27.9448 29.38 28.3558 28.969 28.6639C28.5581 28.9721 28.0445 29.0748 27.5308 29.0748C27.1199 29.0748 26.7089 28.9721 26.298 28.7667C25.8871 28.5612 25.5789 28.3558 25.3735 27.9448C25.2708 27.8421 25.2708 27.8421 25.168 27.8421C25.0652 27.8421 25.0652 27.8421 24.9626 27.8421C24.8598 27.8421 24.8598 27.9448 24.8598 27.9448C24.038 28.8693 23.1134 29.1776 22.0861 29.1776ZM23.2161 23.8355C23.1134 24.1438 23.1134 24.452 23.3188 24.7601C23.5243 25.0682 23.7298 25.1711 24.1407 25.2738C24.3461 25.2738 24.5516 25.1711 24.757 25.0682C24.9626 24.9655 24.9626 24.7601 25.0652 24.452V22.9111C25.0652 22.8082 25.0652 22.8082 24.9626 22.8082H24.8598H24.757C24.5516 22.9111 24.3461 22.9111 24.1407 23.0136C23.627 23.2192 23.3188 23.4246 23.2161 23.8355Z" fill="#278732"/>
<path d="M42.0183 26.4034C41.6072 25.9924 41.4018 25.2734 41.4018 24.657V22.4997C41.4018 21.6778 41.5047 20.7533 41.71 20.0342C41.9154 18.9042 41.0937 19.0068 40.8882 19.0068C40.8882 19.0068 40.8882 19.0068 40.7854 19.0068C40.6828 19.0068 40.58 19.0068 40.4772 19.1096C40.0663 19.2123 39.3472 19.4177 38.32 19.7259C36.779 20.1368 36.8818 20.8559 36.8818 21.0614C36.9845 21.6778 37.909 21.6778 38.32 22.2943C38.5255 22.6024 38.6282 23.0134 38.6282 23.4243C38.6282 23.4243 38.7307 25.6843 37.909 26.4034C36.8818 27.2253 36.8818 28.0471 36.8818 28.3553C36.8818 28.6634 37.0872 29.5881 37.909 29.5881H39.5528H40.1691H41.9154C42.8401 29.5881 42.9428 28.6634 42.9428 28.3553C43.0455 28.0471 42.9428 27.2253 42.0183 26.4034Z" fill="#278732"/>
<path d="M37.8043 18.4935C38.1126 18.6989 38.4208 18.8016 38.8316 18.8016C39.2426 18.8016 39.5508 18.8016 39.7562 18.6989C40.0645 18.6989 40.3726 18.4935 40.6808 18.3908C40.9889 18.1854 41.2971 17.9798 41.5026 17.6716C41.708 17.3635 41.8108 17.0553 41.708 16.6443C41.6055 16.2335 41.3999 15.9252 41.0917 15.7198C40.7836 15.5143 40.4753 15.4116 40.0645 15.4116C39.6534 15.4116 39.3453 15.4116 39.0371 15.4116C38.7289 15.4116 38.4208 15.617 38.1126 15.7198C37.8043 15.9252 37.4961 16.1307 37.2908 16.4388C37.0853 16.747 36.9824 17.0553 37.0853 17.4661C37.2908 17.9798 37.4961 18.288 37.8043 18.4935Z" fill="#278732"/>
<path d="M2.87643 22.6035C4.10923 22.9116 3.5955 23.3224 3.5955 23.7335C3.80104 26.61 7.60203 25.3771 6.36928 23.8362C5.9584 23.3224 4.62286 23.117 4.00644 22.8089C3.08196 22.2953 2.77373 22.2953 2.15736 21.5762C1.54094 20.857 1.13001 20.2407 1.2328 18.9052C1.43824 17.7752 1.95187 16.9533 2.87643 16.4396C3.69829 15.9259 4.62286 15.7205 5.75286 15.7205C7.19114 15.7205 8.32115 16.1314 9.14301 16.9533C9.75939 17.6725 10.1703 18.3915 10.0676 19.1107C10.0676 19.9324 9.75939 20.6516 8.21845 20.6516C7.49929 20.6516 5.65021 20.2407 6.36928 18.597C6.47202 18.2888 7.19114 17.9807 7.08844 17.6725C7.08844 17.3642 6.78022 17.056 6.47202 16.9533C6.16388 16.8507 5.54746 16.7478 5.13653 16.8507C4.7256 16.9533 4.00657 17.2614 3.90378 17.7752C3.80104 18.3915 4.21197 18.9052 4.7256 19.3161C5.23932 19.727 5.85561 20.1379 6.47202 20.5488C7.39664 21.0624 8.21845 21.4735 9.04031 21.987C9.86213 22.6035 10.9921 23.3224 10.7867 26.199C10.684 27.4318 9.65664 30 5.13653 30C4.00657 30 2.97922 29.589 2.15736 29.0755C0.92461 28.3564 0.10279 26.61 0 25.5826C0 24.4526 0.205533 22.9116 1.74647 22.7062C2.05461 22.5006 2.46554 22.5006 2.87643 22.6035Z" fill="#278732"/>
</svg>
