<svg width="22" height="22" viewBox="0 0 22 22" fill="none" xmlns="http://www.w3.org/2000/svg">
<path d="M10.459 0.342042C10.6885 -0.114013 11.3115 -0.114015 11.541 0.342041L14.5987 6.41831C14.6872 6.59419 14.8485 6.71706 15.0354 6.75097L21.492 7.92227C21.9766 8.01018 22.1691 8.63136 21.8264 9.00113L17.2595 13.9278C17.1273 14.0704 17.0657 14.2692 17.0927 14.466L18.0254 21.2662C18.0954 21.7766 17.5914 22.1605 17.1501 21.933L11.2699 18.9015C11.0997 18.8138 10.9003 18.8138 10.7301 18.9015L4.84991 21.933C4.40857 22.1605 3.90459 21.7766 3.97459 21.2662L4.90732 14.466C4.93432 14.2692 4.8727 14.0704 4.74052 13.9278L0.173628 9.00113C-0.169141 8.63136 0.0233635 8.01018 0.507968 7.92227L6.96463 6.75097C7.15151 6.71706 7.31282 6.59419 7.40132 6.41831L10.459 0.342042Z" fill="#E5E5E7"/>
</svg>
